<?xml version="1.0" encoding="utf-8"?>
<!-- Generator: Adobe Illustrator 27.0.0, SVG Export Plug-In . SVG Version: 6.00 Build 0)  -->
<svg version="1.1" id="Capa_1" xmlns="http://www.w3.org/2000/svg" xmlns:xlink="http://www.w3.org/1999/xlink" x="0px" y="0px"
	 viewBox="0 0 805.48 156.16" style="enable-background:new 0 0 805.48 156.16;" xml:space="preserve">
<style type="text/css">
	.st0{fill:#21234D;}
	.st1{fill:#00DB90;}
</style>
<g>
	<path class="st0" d="M407.56,89.59l-7.67,7.26v11.63h-10.31v-61.2h10.31v36.95l21.36-19.79h12.37l-18.39,18.47l20.12,25.57h-12.54
		L407.56,89.59z"/>
	<path class="st0" d="M446.32,106.16c-3.57-1.92-6.36-4.6-8.37-8.04c-2.01-3.44-3.01-7.33-3.01-11.67c0-4.34,1-8.22,3.01-11.63
		c2.01-3.41,4.8-6.07,8.37-8c3.57-1.92,7.59-2.89,12.04-2.89c4.51,0,8.55,0.96,12.12,2.89c3.57,1.93,6.36,4.59,8.37,8
		c2.01,3.41,3.01,7.29,3.01,11.63c0,4.34-1,8.23-3.01,11.67c-2.01,3.44-4.8,6.12-8.37,8.04c-3.57,1.93-7.62,2.89-12.12,2.89
		C453.91,109.05,449.9,108.09,446.32,106.16z M467.77,96.43c2.47-2.53,3.71-5.86,3.71-9.98c0-4.12-1.24-7.45-3.71-9.98
		c-2.47-2.53-5.61-3.79-9.4-3.79c-3.79,0-6.91,1.27-9.36,3.79c-2.45,2.53-3.67,5.86-3.67,9.98c0,4.12,1.22,7.45,3.67,9.98
		c2.45,2.53,5.57,3.79,9.36,3.79C462.16,100.23,465.29,98.96,467.77,96.43z"/>
	<path class="st0" d="M521.25,68.6c3.44,3.11,5.15,7.79,5.15,14.06v25.81h-9.73v-5.36c-1.27,1.93-3.07,3.4-5.4,4.41
		c-2.34,1.02-5.15,1.53-8.45,1.53c-3.3,0-6.19-0.56-8.66-1.69c-2.47-1.13-4.39-2.69-5.73-4.7c-1.35-2.01-2.02-4.27-2.02-6.8
		c0-3.96,1.47-7.13,4.41-9.53c2.94-2.39,7.57-3.59,13.9-3.59h11.38v-0.66c0-3.08-0.92-5.44-2.76-7.09
		c-1.84-1.65-4.58-2.47-8.21-2.47c-2.47,0-4.91,0.39-7.3,1.15c-2.39,0.77-4.41,1.84-6.06,3.22l-4.04-7.51
		c2.31-1.76,5.08-3.11,8.33-4.04c3.24-0.93,6.68-1.4,10.31-1.4C512.85,63.94,517.82,65.49,521.25,68.6z M511.85,99.77
		c2.01-1.18,3.42-2.87,4.25-5.07v-5.11h-10.64c-5.94,0-8.91,1.95-8.91,5.86c0,1.87,0.74,3.35,2.23,4.45
		c1.48,1.1,3.55,1.65,6.19,1.65C507.55,101.55,509.84,100.96,511.85,99.77z"/>
	<g>
		<polygon class="st1" points="335.12,80.09 335.12,80.09 354.19,57.58 340.8,57.58 324.03,77.37 324.03,61.89 313.83,61.89 
			313.83,98.75 319.3,98.75 328.83,87.5 328.83,87.5 		"/>
		<polygon class="st1" points="328.88,90.02 337.46,98.75 350.78,98.75 350.78,98.75 335.58,82.12 		"/>
	</g>
	<g>
		<path class="st1" d="M360.53,106.42l-4.42-4.42c3.22,0.57,6.53,0.71,9.8,0.4c2.52-0.23,5.01-0.72,7.43-1.47
			c0.04,0.4,0.04,0.8,0,1.2c-0.13,1.62-0.79,3.2-1.99,4.46c-2.66,2.78-7.01,3.02-9.96,0.55l0.01-0.01
			C361.09,106.94,360.8,106.7,360.53,106.42z"/>
		<path class="st1" d="M357.33,109.62l-4.42-4.42c0.57,3.22,0.71,6.53,0.4,9.8c-0.23,2.52-0.72,5.01-1.47,7.43
			c0.4,0.04,0.8,0.04,1.2,0c1.62-0.13,3.2-0.79,4.46-1.99c2.78-2.66,3.02-7.01,0.55-9.96l-0.01,0.01
			C357.84,110.18,357.6,109.89,357.33,109.62z"/>
		<path class="st1" d="M357.33,46.71l-4.42,4.42c0.57-3.22,0.71-6.53,0.4-9.8c-0.23-2.52-0.72-5.01-1.47-7.43
			c0.4-0.04,0.8-0.04,1.2,0c1.62,0.13,3.2,0.79,4.46,1.99c2.78,2.66,3.02,7.01,0.55,9.96l-0.01-0.01
			C357.84,46.15,357.6,46.44,357.33,46.71z"/>
		<path class="st1" d="M360.53,49.91l-4.42,4.42c3.22-0.57,6.53-0.71,9.8-0.4c2.52,0.23,5.01,0.72,7.43,1.47
			c0.04-0.4,0.04-0.8,0-1.2c-0.13-1.62-0.79-3.2-1.99-4.46c-2.66-2.78-7.01-3.02-9.96-0.55l0.01,0.01
			C361.09,49.39,360.8,49.63,360.53,49.91z"/>
		<path class="st1" d="M297.62,49.91l4.42,4.42c-3.22-0.57-6.53-0.71-9.8-0.4c-2.52,0.23-5.01,0.72-7.43,1.47
			c-0.04-0.4-0.04-0.8,0-1.2c0.13-1.62,0.79-3.2,1.99-4.46c2.66-2.78,7.01-3.02,9.96-0.55l-0.01,0.01
			C297.06,49.39,297.35,49.63,297.62,49.91z"/>
		<path class="st1" d="M300.81,46.71l4.42,4.42c-0.57-3.22-0.71-6.53-0.4-9.8c0.23-2.52,0.72-5.01,1.47-7.43
			c-0.4-0.04-0.8-0.04-1.2,0c-1.62,0.13-3.2,0.79-4.46,1.99c-2.78,2.66-3.02,7.01-0.55,9.96l0.01-0.01
			C300.3,46.15,300.54,46.44,300.81,46.71z"/>
		<path class="st1" d="M300.81,109.62l4.42-4.42c-0.57,3.22-0.71,6.53-0.4,9.8c0.23,2.52,0.72,5.01,1.47,7.43
			c-0.4,0.04-0.8,0.04-1.2,0c-1.62-0.13-3.2-0.79-4.46-1.99c-2.78-2.66-3.02-7.01-0.55-9.96l0.01,0.01
			C300.3,110.18,300.54,109.89,300.81,109.62z"/>
		<path class="st1" d="M297.62,106.42l4.42-4.42c-3.22,0.57-6.53,0.71-9.8,0.4c-2.52-0.23-5.01-0.72-7.43-1.47
			c-0.04,0.4-0.04,0.8,0,1.2c0.13,1.62,0.79,3.2,1.99,4.46c2.66,2.78,7.01,3.02,9.96,0.55l-0.01-0.01
			C297.06,106.94,297.35,106.7,297.62,106.42z"/>
		<path class="st1" d="M335.04,110.93c0.98,2.14,2.27,4.16,3.87,5.97c2.01,2.3,4.41,4.18,7.06,5.58v-5.39
			c0-7.13-5.78-12.91-12.91-12.91C333.38,106.5,334.06,108.78,335.04,110.93z"/>
		<path class="st1" d="M324.97,104.17c-7.13,0-12.91,5.78-12.91,12.91v5.39c2.65-1.4,5.05-3.27,7.06-5.58
			c1.59-1.81,2.89-3.83,3.87-5.97C323.97,108.78,324.64,106.5,324.97,104.17z"/>
		<path class="st1" d="M331.33,120.39v-6.25c1.88,2.68,4.12,5.12,6.64,7.22c1.94,1.61,4.05,3.03,6.29,4.22
			c-0.25,0.31-0.54,0.59-0.85,0.85c-1.24,1.05-2.82,1.7-4.56,1.75c-3.84,0.09-7.09-2.82-7.43-6.65h0.01
			C331.36,121.15,331.33,120.77,331.33,120.39z"/>
		<path class="st1" d="M326.81,120.39v-6.25c-1.88,2.68-4.12,5.12-6.64,7.22c-1.94,1.61-4.05,3.03-6.29,4.22
			c0.25,0.31,0.54,0.59,0.85,0.85c1.24,1.05,2.82,1.7,4.56,1.75c3.84,0.09,7.09-2.82,7.43-6.65h-0.01
			C326.78,121.15,326.81,120.77,326.81,120.39z"/>
		<path class="st1" d="M355.08,82.27c0,7.13,5.78,12.91,12.91,12.91h5.39c-1.4-2.65-3.27-5.05-5.58-7.06
			c-1.81-1.59-3.83-2.89-5.97-3.87C359.69,83.27,357.41,82.6,355.08,82.27z"/>
		<path class="st1" d="M371.3,75.91h-6.25c2.68-1.88,5.12-4.12,7.22-6.64c1.61-1.94,3.03-4.05,4.22-6.29
			c0.31,0.25,0.59,0.54,0.85,0.85c1.05,1.24,1.7,2.82,1.75,4.56c0.09,3.84-2.82,7.09-6.65,7.43V75.8
			C372.05,75.87,371.68,75.91,371.3,75.91z"/>
		<path class="st1" d="M371.3,80.42h-6.25c2.68,1.88,5.12,4.12,7.22,6.64c1.61,1.94,3.03,4.05,4.22,6.29
			c0.31-0.25,0.59-0.54,0.85-0.85c1.05-1.24,1.7-2.82,1.75-4.56c0.09-3.84-2.82-7.09-6.65-7.43v0.01
			C372.05,80.46,371.68,80.42,371.3,80.42z"/>
		<path class="st1" d="M323.11,45.4c-0.98-2.14-2.27-4.16-3.87-5.97c-2.01-2.3-4.41-4.18-7.06-5.58v5.39
			c0,7.13,5.78,12.91,12.91,12.91C324.76,49.83,324.09,47.54,323.11,45.4z"/>
		<path class="st1" d="M333.17,52.16c7.13,0,12.91-5.78,12.91-12.91v-5.39c-2.65,1.4-5.05,3.27-7.06,5.58
			c-1.59,1.81-2.89,3.83-3.87,5.97C334.18,47.54,333.5,49.83,333.17,52.16z"/>
		<path class="st1" d="M326.81,35.94v6.25c-1.88-2.68-4.12-5.12-6.64-7.22c-1.94-1.61-4.05-3.03-6.29-4.22
			c0.25-0.31,0.54-0.59,0.85-0.85c1.24-1.05,2.82-1.7,4.56-1.75c3.84-0.09,7.09,2.82,7.43,6.65h-0.01
			C326.78,35.18,326.81,35.56,326.81,35.94z"/>
		<path class="st1" d="M331.33,35.94v6.25c1.88-2.68,4.12-5.12,6.64-7.22c1.94-1.61,4.05-3.03,6.29-4.22
			c-0.25-0.31-0.54-0.59-0.85-0.85c-1.24-1.05-2.82-1.7-4.56-1.75c-3.84-0.09-7.09,2.82-7.43,6.65h0.01
			C331.36,35.18,331.33,35.56,331.33,35.94z"/>
		<path class="st1" d="M296.31,84.13c-2.14,0.98-4.16,2.27-5.97,3.87c-2.3,2.01-4.18,4.41-5.58,7.06h5.39
			c7.13,0,12.91-5.78,12.91-12.91C300.74,82.48,298.45,83.15,296.31,84.13z"/>
		<path class="st1" d="M303.07,74.06c0-7.13-5.78-12.91-12.91-12.91h-5.39c1.4,2.65,3.27,5.05,5.58,7.06
			c1.81,1.59,3.83,2.89,5.97,3.87C298.45,73.06,300.74,73.73,303.07,74.06z"/>
		<path class="st1" d="M286.85,80.42h6.25c-2.68,1.88-5.12,4.12-7.22,6.64c-1.61,1.94-3.03,4.05-4.22,6.29
			c-0.31-0.25-0.59-0.54-0.85-0.85c-1.05-1.24-1.7-2.82-1.75-4.56c-0.09-3.84,2.82-7.09,6.65-7.43v0.01
			C286.09,80.46,286.47,80.42,286.85,80.42z"/>
		<path class="st1" d="M286.85,75.91h6.25c-2.68-1.88-5.12-4.12-7.22-6.64c-1.61-1.94-3.03-4.05-4.22-6.29
			c-0.31,0.25-0.59,0.54-0.85,0.85c-1.05,1.24-1.7,2.82-1.75,4.56c-0.09,3.84,2.82,7.09,6.65,7.43V75.8
			C286.09,75.87,286.47,75.91,286.85,75.91z"/>
		<path class="st1" d="M361.84,72.2c2.14-0.98,4.16-2.27,5.97-3.87c2.3-2.01,4.18-4.41,5.58-7.06h-5.39
			c-7.13,0-12.91,5.78-12.91,12.91C357.41,73.85,359.69,73.18,361.84,72.2z"/>
	</g>
</g>
</svg>
